<svg id="visual" viewBox="0 0 960 540" width="960" height="540" xmlns="http://www.w3.org/2000/svg" xmlns:xlink="http://www.w3.org/1999/xlink" version="1.1"><rect x="0" y="0" width="960" height="540" fill="#FFFFFF"></rect><defs><linearGradient id="grad1_0" x1="43.8%" y1="100%" x2="100%" y2="0%"><stop offset="14.444444444444446%" stop-color="#ffffff" stop-opacity="1"></stop><stop offset="85.55555555555554%" stop-color="#ffffff" stop-opacity="1"></stop></linearGradient></defs><defs><linearGradient id="grad2_0" x1="0%" y1="100%" x2="56.3%" y2="0%"><stop offset="14.444444444444446%" stop-color="#ffffff" stop-opacity="1"></stop><stop offset="85.55555555555554%" stop-color="#ffffff" stop-opacity="1"></stop></linearGradient></defs><g transform="translate(960, 540)"><path d="M-307 0C-308.6 -61.2 -310.1 -122.4 -280.6 -162C-251.1 -201.6 -190.4 -219.7 -138.5 -239.9C-86.6 -260.1 -43.3 -282.6 0 -305L0 0Z" fill="#971a1e"></path></g><g transform="translate(0, 0)"><path d="M310 0C280.6 42.2 251.2 84.3 228.6 132C206.1 179.7 190.5 232.9 153.5 265.9C116.5 298.8 58.3 311.4 0 324L0 0Z" fill="#971a1e"></path></g></svg>