<svg id="visual" viewBox="0 0 960 540" width="960" height="540" xmlns="http://www.w3.org/2000/svg" xmlns:xlink="http://www.w3.org/1999/xlink" version="1.1"><rect x="0" y="0" width="960" height="540" fill="#FFF"></rect><path d="M703 540L680 527.2C657 514.3 611 488.7 595.3 463C579.7 437.3 594.3 411.7 614.5 386C634.7 360.3 660.3 334.7 655.3 308.8C650.3 283 614.7 257 619.5 231.2C624.3 205.3 669.7 179.7 666.7 154C663.7 128.3 612.3 102.7 607.7 77C603 51.3 645 25.7 666 12.8L687 0L960 0L960 12.8C960 25.7 960 51.3 960 77C960 102.7 960 128.3 960 154C960 179.7 960 205.3 960 231.2C960 257 960 283 960 308.8C960 334.7 960 360.3 960 386C960 411.7 960 437.3 960 463C960 488.7 960 514.3 960 527.2L960 540Z" fill="#f1f1f1"></path><path d="M759 540L747 527.2C735 514.3 711 488.7 708.3 463C705.7 437.3 724.3 411.7 736.8 386C749.3 360.3 755.7 334.7 737.3 308.8C719 283 676 257 674.8 231.2C673.7 205.3 714.3 179.7 725 154C735.7 128.3 716.3 102.7 697.8 77C679.3 51.3 661.7 25.7 652.8 12.8L644 0L960 0L960 12.8C960 25.7 960 51.3 960 77C960 102.7 960 128.3 960 154C960 179.7 960 205.3 960 231.2C960 257 960 283 960 308.8C960 334.7 960 360.3 960 386C960 411.7 960 437.3 960 463C960 488.7 960 514.3 960 527.2L960 540Z" fill="#c0b2d6"></path><path d="M801 540L800.7 527.2C800.3 514.3 799.7 488.7 792.3 463C785 437.3 771 411.7 763.8 386C756.7 360.3 756.3 334.7 758 308.8C759.7 283 763.3 257 767.5 231.2C771.7 205.3 776.3 179.7 778.7 154C781 128.3 781 102.7 777.8 77C774.7 51.3 768.3 25.7 765.2 12.8L762 0L960 0L960 12.8C960 25.7 960 51.3 960 77C960 102.7 960 128.3 960 154C960 179.7 960 205.3 960 231.2C960 257 960 283 960 308.8C960 334.7 960 360.3 960 386C960 411.7 960 437.3 960 463C960 488.7 960 514.3 960 527.2L960 540Z" fill="#8f76bb"></path><path d="M826 540L830.3 527.2C834.7 514.3 843.3 488.7 836.8 463C830.3 437.3 808.7 411.7 797.5 386C786.3 360.3 785.7 334.7 788.2 308.8C790.7 283 796.3 257 801 231.2C805.7 205.3 809.3 179.7 814.7 154C820 128.3 827 102.7 826 77C825 51.3 816 25.7 811.5 12.8L807 0L960 0L960 12.8C960 25.7 960 51.3 960 77C960 102.7 960 128.3 960 154C960 179.7 960 205.3 960 231.2C960 257 960 283 960 308.8C960 334.7 960 360.3 960 386C960 411.7 960 437.3 960 463C960 488.7 960 514.3 960 527.2L960 540Z" fill="#5a3ea0"></path><path d="M865 540L868 527.2C871 514.3 877 488.7 877.8 463C878.7 437.3 874.3 411.7 873.3 386C872.3 360.3 874.7 334.7 882.8 308.8C891 283 905 257 908.7 231.2C912.3 205.3 905.7 179.7 893.3 154C881 128.3 863 102.7 853.7 77C844.3 51.3 843.7 25.7 843.3 12.8L843 0L960 0L960 12.8C960 25.7 960 51.3 960 77C960 102.7 960 128.3 960 154C960 179.7 960 205.3 960 231.2C960 257 960 283 960 308.8C960 334.7 960 360.3 960 386C960 411.7 960 437.3 960 463C960 488.7 960 514.3 960 527.2L960 540Z" fill="#020284"></path></svg>